{
	"asset":{
		"version":"2.0",
		"generator":"Created using the official Cinema 4D glTF Exporter 1.000x284978"
	},
	"scenes":[{
		"nodes":[0]
	}],
	"materials":[{
		"pbrMetallicRoughness":{
			"baseColorFactor":[1.0,
			1.0,
			1.0,
			1.0],
			"metallicFactor":1.0,
			"roughnessFactor":1.0
		},
		"emissiveFactor":[0.0,
		0.0,
		0.0],
		"alphaMode":"OPAQUE",
		"doubleSided":false,
		"name":""
	}],
	"nodes":[{
		"name":"fancy_picture_frame_01",
		"translation":[0.0,
		0.0,
		0.0],
		"rotation":[0.7071067690849304,
		0.0,
		0.0,
		-0.7071067690849304],
		"scale":[100.0,
		100.0,
		100.0],
		"mesh":0
	}],
	"meshes":[{
		"name":"fancy_picture_frame_01",
		"primitives":[{
			"attributes":{
				"POSITION":1,
				"NORMAL":2,
				"TEXCOORD_0":3
			},
			"indices":0,
			"material":0
		}]
	}],
	"accessors":[{
		"bufferView":0,
		"type":"SCALAR",
		"componentType":5123,
		"count":2808,
		"byteOffset":0,
		"min":[0],
		"max":[628]
	},
	{
		"bufferView":1,
		"type":"VEC3",
		"componentType":5126,
		"count":629,
		"byteOffset":0,
		"min":[-0.301515132188797,
		-0.0218921210616827,
		-0.23206323385238648],
		"max":[0.301515132188797,
		-0.001899046590551734,
		0.23206321895122529]
	},
	{
		"bufferView":1,
		"type":"VEC3",
		"componentType":5126,
		"count":629,
		"byteOffset":12,
		"min":[-1.0,
		-1.0,
		-1.0],
		"max":[1.0,
		1.0,
		1.0]
	},
	{
		"bufferView":1,
		"type":"VEC2",
		"componentType":5126,
		"count":629,
		"byteOffset":24,
		"min":[0.005340241361409426,
		-0.9960485696792603],
		"max":[0.9964888691902161,
		-0.0026264190673828127]
	}],
	"bufferViews":[{
		"buffer":0,
		"byteOffset":0,
		"byteLength":5616,
		"target":34963
	},
	{
		"buffer":0,
		"byteOffset":5616,
		"byteLength":20128,
		"target":34962,
		"byteStride":32
	}],
	"buffers":[{
		"uri":"data:application/octet-stream;base64,",
		"byteLength":25744
	}]
}